PathFileType	4	(X/Y/Z)	/Users/itak/Documents/Research/Walk-IL/dataset/trc/00256_00009.trc
DataRate	CameraRate	NumFrames	NumMarkers	Units	OrigDataRate	OrigDataStartFrame	OrigNumFrames
100.000000	100.000000	4	53	mm	100.000000	364	583
Frame#	Time	RPSI			LPSI			L3			STRN			T10			C7			CLAV			RBAK			LBAK			LSHO			LUPA			LAEL			LAOL			LWTS			LWPS			LFRA			LIFD			LHPS			LHTS			RSHO			RUPA			RAEL			RAOL			RWTS			RWPS			RFRA			RIFD			RHTS			RHPS			RBHD			LFHD			RFHD			LBHD			LHIP			RHIP			RASI			LASI			LKNE			LTHI			LANK			LTIP			LTOE			LMT1			LMT5			LHEE			RKNE			RTHI			RANK			RTIP			RTOE			RMT1			RMT5			RHEE			
		X1	Y1	Z1	X2	Y2	Z2	X3	Y3	Z3	X4	Y4	Z4	X5	Y5	Z5	X6	Y6	Z6	X7	Y7	Z7	X8	Y8	Z8	X9	Y9	Z9	X10	Y10	Z10	X11	Y11	Z11	X12	Y12	Z12	X13	Y13	Z13	X14	Y14	Z14	X15	Y15	Z15	X16	Y16	Z16	X17	Y17	Z17	X18	Y18	Z18	X19	Y19	Z19	X20	Y20	Z20	X21	Y21	Z21	X22	Y22	Z22	X23	Y23	Z23	X24	Y24	Z24	X25	Y25	Z25	X26	Y26	Z26	X27	Y27	Z27	X28	Y28	Z28	X29	Y29	Z29	X30	Y30	Z30	X31	Y31	Z31	X32	Y32	Z32	X33	Y33	Z33	X34	Y34	Z34	X35	Y35	Z35	X36	Y36	Z36	X37	Y37	Z37	X38	Y38	Z38	X39	Y39	Z39	X40	Y40	Z40	X41	Y41	Z41	X42	Y42	Z42	X43	Y43	Z43	X44	Y44	Z44	X45	Y45	Z45	X46	Y46	Z46	X47	Y47	Z47	X48	Y48	Z48	X49	Y49	Z49	X50	Y50	Z50	X51	Y51	Z51	X52	Y52	Z52	X53	Y53	Z53	

365	3.64	-118.7716445922852	1037.665283203125	251.7660675048828	-2.790925741195679	1048.675903320312	225.1301879882812	-39.71504211425781	1133.094116210938	232.9923095703125	27.62625694274902	1312.158813476562	486.1495056152344	-37.12142181396484	1260.029907226562	234.1755065917969	-5.298324584960938	1518.240234375	302.5438232421875	26.70114707946777	1431.734741210938	465.830322265625	-102.3582611083984	1386.472534179688	246.3576354980469	97.97936248779297	1478.082275390625	256.6641540527344	167.0937042236328	1475.82177734375	334.4935913085938	244.2615203857422	1361.49755859375	301.9421691894531	295.3642883300781	1161.6484375	351.9945373535156	245.6596527099609	1124.197021484375	290.1636962890625	247.6912536621094	979.9049682617188	526.4249267578125	327.1203918457031	955.981689453125	506.3564453125	314.0323791503906	1069.778076171875	410.2232055664062	252.9277191162109	807.3971557617188	588.5396728515625	325.3448791503906	881.4898681640625	557.1973876953125	273.3419189453125	900.9938354492188	596.3615112304688	-158.9030609130859	1490.503540039062	400.1026611328125	-233.6684417724609	1431.842529296875	396.0658569335938	-296.1810302734375	1153.421020507812	371.3283081054688	-215.8062438964844	1144.282470703125	320.3732299804688	-212.7229156494141	957.26513671875	516.3101806640625	-286.275634765625	933.402099609375	481.4361877441406	-299.6630249023438	1085.48974609375	405.7557373046875	-191.7601623535156	767.5388793945312	556.0503540039062	-210.0957183837891	842.5782470703125	572.2884521484375	-270.4319152832031	832.9632568359375	533.1834106445312	-30.62506484985352	1671.002319335938	355.8577880859375	93.81107330322266	1697.272827148438	544.1549072265625	-4.459945201873779	1698.233032226562	559.203369140625	107.6323776245117	1672.460327148438	381.7659606933594	159.5066833496094	991.8375244140625	287.7093505859375	-194.0496520996094	997.2659301757812	374.7041625976562	-137.5892486572266	1043.031372070312	456.6421203613281	137.1614074707031	1027.891845703125	398.749755859375	120.1811294555664	505.827880859375	333.2642517089844	147.6159973144531	650.0380859375	322.9255676269531	58.28392791748047	31.55197715759277	260.0496215820312	96.15172576904297	281.3504028320312	285.3255920410156	79.41396331787109	40.91848754882812	482.0191345214844	15.93349933624268	40.20586776733398	432.3590393066406	119.2125091552734	32.40525436401367	372.9060974121094	-11.3561487197876	41.49042129516602	219.94775390625	-134.2116546630859	534.00537109375	547.8970947265625	-185.3454742431641	790.8002319335938	473.6271362304688	-120.3286209106445	60.56804275512695	404.3100891113281	-117.6260070800781	414.0188598632812	545.7437744140625	-75.48570251464844	64.29608917236328	609.9307250976562	-32.4358024597168	55.45859909057617	554.1333618164062	-143.5554809570312	55.42667770385742	513.303955078125	-64.65682220458984	62.91170883178711	340.9198913574219	
366	3.65	-115.9538650512695	1037.053833007812	256.7244262695312	0.159466877579689	1048.1533203125	230.7779083251953	-36.92297744750977	1132.592529296875	238.3965606689453	28.76536178588867	1311.738037109375	491.9948120117188	-34.52347946166992	1259.567016601562	239.6171875	-3.296580791473389	1517.78564453125	308.2469482421875	27.83429336547852	1431.312622070312	471.6834716796875	-99.91228485107422	1385.93603515625	251.5203552246094	100.274299621582	1477.711669921875	262.9259033203125	168.9474334716797	1475.489013671875	341.1466979980469	246.2932281494141	1361.199829101562	309.1334228515625	297.1687316894531	1161.462158203125	359.7998046875	248.0599670410156	1123.865966796875	297.5813598632812	247.5049285888672	980.7597045898438	534.7052612304688	327.1256713867188	956.5588989257812	515.4778442382812	315.1581115722656	1069.857421875	418.6033325195312	251.5906829833984	808.8421630859375	597.087890625	324.7764282226562	882.3732299804688	566.754638671875	272.3323974609375	902.1292724609375	605.2456665039062	-157.4356231689453	1489.8583984375	405.0369873046875	-232.0996246337891	1431.060302734375	400.5572204589844	-294.0129089355469	1152.573120117188	375.3098449707031	-213.2300720214844	1143.521362304688	324.9251098632812	-211.7400360107422	955.968994140625	520.451416015625	-285.1571350097656	932.402099609375	485.0736083984375	-297.9283752441406	1084.68212890625	409.5234375	-191.4468994140625	766.0139770507812	559.4600219726562	-209.6880950927734	840.9934692382812	575.9219360351562	-269.7960815429688	831.6968994140625	536.4849853515625	-29.05015182495117	1670.416381835938	361.1690979003906	94.52712249755859	1697.21484375	549.9268188476562	-3.747716426849365	1698.171142578125	564.5957641601562	109.0921249389648	1671.979248046875	387.6831359863281	162.1768951416016	991.4129028320312	294.2059326171875	-191.9975433349609	996.721435546875	379.2134399414062	-135.7977752685547	1042.406372070312	461.3683166503906	138.8567047119141	1027.400390625	404.8189392089844	120.544921875	505.2982788085938	335.0858764648438	148.7045288085938	649.5108032226562	326.5502014160156	58.10673141479492	31.63876914978027	260.1856689453125	96.3306884765625	281.2908020019531	285.9534606933594	79.35877227783203	40.77762985229492	482.1823120117188	15.89999103546143	40.09987640380859	432.4179382324219	119.1992797851562	32.45946884155273	372.8544921875	-11.50307273864746	41.58938217163086	219.9779052734375	-132.6257781982422	534.9732055664062	555.5565795898438	-184.4079284667969	790.9224853515625	478.5096740722656	-113.7980270385742	56.76984786987305	428.6003112792969	-115.0074081420898	414.8410339355469	557.2108154296875	-69.06749725341797	66.42099761962891	634.0927124023438	-26.00954818725586	56.48441314697266	578.5366821289062	-137.0793762207031	54.49006652832031	537.6707763671875	-58.15641784667969	57.84424591064453	365.1536560058594	
367	3.66	-113.1763534545898	1036.341186523438	261.7599487304688	3.060560464859009	1047.53466796875	236.4876861572266	-34.19214248657227	1132.005126953125	243.8632659912109	29.85527229309082	1311.248413085938	497.857666015625	-32.01386260986328	1259.013916015625	245.088623046875	-1.418318271636963	1517.257080078125	313.9783630371094	28.89303016662598	1430.829956054688	477.5565185546875	-97.58030700683594	1385.3173828125	256.7228698730469	102.437370300293	1477.27587890625	269.1886901855469	170.7045135498047	1475.08935546875	347.7774353027344	248.1867218017578	1360.822875976562	316.2471618652344	298.8173522949219	1161.156616210938	367.4104309082031	250.2784118652344	1123.461547851562	304.8161926269531	247.2148895263672	981.4028930664062	542.684814453125	326.9983215332031	956.9248657226562	524.2493286132812	316.1205749511719	1069.78125	426.7174072265625	250.1848449707031	810.0131225585938	605.2899780273438	324.0765380859375	883.0154418945312	575.9013671875	271.1926879882812	903.0114135742188	613.7550659179688	-156.0493774414062	1489.108642578125	410.0369873046875	-230.6096649169922	1430.170654296875	405.1166076660156	-291.9256591796875	1151.6279296875	379.34521484375	-210.7351989746094	1142.666259765625	329.52197265625	-210.8463134765625	954.5338745117188	524.5888671875	-284.1325073242188	931.2979125976562	488.7368469238281	-296.2552795410156	1083.754760742188	413.3329162597656	-191.2522277832031	764.3392944335938	562.75341796875	-209.3875427246094	839.2437133789062	579.4970703125	-269.2705078125	830.3112182617188	539.7515258789062	-27.58139228820801	1669.75048828125	366.4967956542969	95.17291259765625	1697.090209960938	555.6890869140625	-3.115740537643433	1698.03759765625	569.9961547851562	110.4425888061523	1671.422241210938	393.5960693359375	164.8117980957031	990.9179077148438	300.7490539550781	-190.0000305175781	996.093017578125	383.8013916015625	-134.0435180664062	1041.727294921875	466.19775390625	140.6753540039062	1026.89599609375	411.0754089355469	120.920166015625	504.7730102539062	337.0481262207031	149.7642974853516	648.9469604492188	330.2397766113281	57.92140579223633	31.71969604492188	260.3275146484375	96.54974365234375	281.22607421875	286.6588745117188	79.28702545166016	40.63479232788086	482.3354797363281	15.85547161102295	39.98965072631836	432.4782104492188	119.186164855957	32.51718902587891	372.8006286621094	-11.66051483154297	41.69816207885742	220.0069274902344	-131.1244964599609	535.7381591796875	563.0325317382812	-183.4092559814453	790.9542846679688	483.4960327148438	-107.5048980712891	53.41496276855469	452.7305908203125	-112.4850463867188	415.5965881347656	568.4625854492188	-62.44282913208008	68.5841064453125	657.8518676757812	-19.49947357177734	57.69607543945312	602.4406127929688	-130.6037750244141	53.79165649414062	561.858154296875	-52.02077484130859	53.3743782043457	389.1675720214844	
368	3.67	-110.4473724365234	1035.532958984375	266.8834838867188	5.904993534088135	1046.822509765625	242.2642211914062	-31.52689361572266	1131.332275390625	249.3965759277344	30.907470703125	1310.68408203125	503.7400817871094	-29.58833312988281	1258.36962890625	250.5980224609375	0.3402381241321564	1516.65234375	319.7400512695312	29.88434410095215	1430.279418945312	483.4529418945312	-95.35843658447266	1384.615478515625	261.9652099609375	104.4727401733398	1476.775634765625	275.454345703125	172.3704681396484	1474.620361328125	354.390869140625	249.9520721435547	1360.363037109375	323.2852783203125	300.3139953613281	1160.728393554688	374.8293151855469	252.3261260986328	1122.982788085938	311.8721008300781	246.8629913330078	981.8265380859375	550.3661499023438	326.7438354492188	957.0684814453125	532.6714477539062	316.9342346191406	1069.544311523438	434.5685729980469	248.7085723876953	810.8929443359375	613.139404296875	323.2540283203125	883.4020385742188	584.6368408203125	269.9451904296875	903.6284790039062	621.8912963867188	-154.7425842285156	1488.248168945312	415.0975646972656	-229.1977844238281	1429.168212890625	409.7384033203125	-289.9195556640625	1150.579833984375	383.4306030273438	-208.3278656005859	1141.710205078125	334.1607971191406	-210.0430603027344	952.97314453125	528.7363891601562	-283.1969604492188	930.0926513671875	492.4322204589844	-294.6256713867188	1082.700805664062	417.1904602050781	-191.1594848632812	762.531982421875	565.9679565429688	-209.1760101318359	837.3519287109375	583.038330078125	-268.8444519042969	828.8167114257812	543.0035400390625	-26.22088050842285	1668.998901367188	371.8434448242188	95.75015258789062	1696.8994140625	561.4478149414062	-2.572569608688354	1697.830688476562	575.4047241210938	111.6815795898438	1670.792236328125	399.5078430175781	167.4034118652344	990.3573608398438	307.3367004394531	-188.0488433837891	995.379638671875	388.4871826171875	-132.3201751708984	1040.993774414062	471.1469421386719	142.5713500976562	1026.360107421875	417.4848937988281	121.3318786621094	504.2570495605469	339.1763916015625	150.8200836181641	648.3563232421875	334.0141296386719	57.73387908935547	31.79462242126465	260.4697875976562	96.82106018066406	281.1537475585938	287.4682922363281	79.20513916015625	40.49618148803711	482.4751892089844	15.80696868896484	39.88060760498047	432.5369567871094	119.1737976074219	32.57534027099609	372.74853515625	-11.82621955871582	41.82087326049805	220.0362701416016	-129.6802215576172	536.2882080078125	570.3290405273438	-182.3229675292969	790.899658203125	488.620849609375	-101.4757537841797	50.50484848022461	476.6181945800781	-110.0569076538086	416.2809143066406	579.4749145507812	-55.79074478149414	70.83509063720703	681.2030639648438	-13.0389575958252	59.10108947753906	625.8670654296875	-124.2213745117188	53.37508773803711	585.7951049804688	-46.20328521728516	49.43074798583984	412.9260864257812	
